<svg width="50" height="50" viewBox="0 0 50 50" fill="none" xmlns="http://www.w3.org/2000/svg">
<path d="M39.5833 22.9167H18.75L25.6042 16.0625C25.7994 15.8688 25.9544 15.6384 26.0602 15.3845C26.166 15.1307 26.2204 14.8584 26.2204 14.5833C26.2204 14.3083 26.166 14.036 26.0602 13.7821C25.9544 13.5283 25.7994 13.2978 25.6042 13.1042C25.2138 12.7161 24.6858 12.4984 24.1354 12.4984C23.585 12.4984 23.057 12.7161 22.6667 13.1042L13.7292 22.0625C12.9467 22.8403 12.5047 23.8967 12.5 25C12.5101 26.0961 12.9518 27.144 13.7292 27.9167L22.6667 36.875C22.8609 37.0679 23.0912 37.2206 23.3445 37.3245C23.5978 37.4283 23.869 37.4813 24.1428 37.4803C24.4165 37.4794 24.6874 37.4245 24.9399 37.3188C25.1925 37.2132 25.4217 37.0588 25.6146 36.8646C25.8075 36.6703 25.9602 36.44 26.0641 36.1867C26.1679 35.9335 26.2209 35.6622 26.2199 35.3885C26.2189 35.1147 26.1641 34.8439 26.0584 34.5913C25.9528 34.3388 25.7984 34.1096 25.6042 33.9167L18.75 27.0833H39.5833C40.1359 27.0833 40.6658 26.8638 41.0565 26.4731C41.4472 26.0824 41.6667 25.5525 41.6667 25C41.6667 24.4475 41.4472 23.9176 41.0565 23.5269C40.6658 23.1362 40.1359 22.9167 39.5833 22.9167Z" fill="white"/>
</svg>
