<svg width="277" height="79" viewBox="0 0 277 79" fill="none" xmlns="http://www.w3.org/2000/svg">
<path fill-rule="evenodd" clip-rule="evenodd" d="M28.7816 10.2922L15.6086 0H41.9808L28.7816 10.2922ZM14.142 21.7368L0.314254 10.947L14.142 0.130944L27.9697 10.947L14.142 21.7368ZM43.4212 23.02L57.2489 33.836L43.4212 44.6259L29.5935 33.836L43.4212 23.02ZM57.2489 56.7251L43.4212 45.9091L29.5935 56.7251L43.4212 67.515L57.2489 56.7251ZM42.6093 45.2806L29.2792 55.6776V34.8574L42.6093 45.2806ZM0 32.7885L13.3302 22.3915L0 11.9683V32.7885ZM57.5632 11.9683V32.7885L44.2592 22.3915L57.5632 11.9683ZM57.2489 10.947L43.4212 0.130944L29.5935 10.947L43.4212 21.7368L57.2489 10.947ZM57.5632 57.7465L44.2592 68.1435L57.5632 78.5667V57.7465ZM188.691 33.836C188.691 26.477 193.824 20.7416 201.759 20.7416C207.18 20.7416 211.213 23.5176 213.047 27.1841L209.956 28.9649C208.726 26.1365 205.766 24.2247 201.89 24.2247C195.919 24.2247 192.357 28.5197 192.357 33.836C192.357 39.1524 196.024 43.4474 201.995 43.4474C205.95 43.4474 208.909 41.5618 210.14 38.7072L213.23 40.488C211.423 44.1545 207.364 46.9305 201.89 46.9305C193.929 46.9305 188.691 41.1689 188.691 33.836ZM108.553 46.5377V46.3281L101.665 36.2192C104.834 35.1979 107.086 32.5004 107.086 28.9387C107.086 24.3033 103.341 21.1082 98.7322 21.1082H85.2711V46.5638H88.9113V36.6644H97.8941L104.625 46.5377H108.553ZM98.575 33.2337H88.9113V24.5914H98.575C101.272 24.5914 103.446 26.2151 103.446 28.9125C103.446 31.61 101.272 33.2337 98.575 33.2337ZM115.153 21.1082V36.2716C115.153 43.8926 120.548 46.9305 126.414 46.9305C132.306 46.9305 137.701 43.9188 137.701 36.2716V21.1082H134.061V36.2716C134.061 41.2999 130.945 43.4474 126.466 43.4474C121.988 43.4474 118.793 41.2999 118.793 36.2716V21.1082H115.153ZM145.846 21.1082H159.333C163.707 21.1082 166.561 24.1723 166.561 28.0483C166.561 30.5886 165.357 32.4218 163.55 33.4432C166.273 34.1765 168.395 36.324 168.395 39.7024C168.395 43.8926 165.147 46.59 161.167 46.59H145.846V21.1082ZM159.202 32.1338C161.455 32.1338 162.947 30.6148 162.947 28.3364C162.947 26.0841 161.455 24.5914 159.202 24.5914H149.486V32.1338H159.202ZM161.009 43.0545C163.262 43.0545 164.754 41.5356 164.754 39.2833C164.754 37.0049 163.262 35.4598 161.009 35.4598H149.486V43.0545H161.009ZM180.153 46.5638V21.1082H176.513V46.5638H180.153ZM232.846 20.7416C224.91 20.7416 219.384 26.6079 219.384 33.836C219.384 41.0642 224.91 46.9305 232.846 46.9305C240.781 46.9305 246.307 41.0642 246.307 33.836C246.307 26.6079 240.781 20.7416 232.846 20.7416ZM232.846 24.2247C238.843 24.2247 242.666 28.4411 242.666 33.836C242.666 39.2048 238.843 43.4474 232.846 43.4474C226.848 43.4474 223.025 39.231 223.025 33.836C223.025 28.4411 226.848 24.2247 232.846 24.2247ZM277 21.1082V46.5638H273.726L257.725 27.0007V46.5638H254.085V21.1082H257.358L273.36 40.7237V21.1082H277Z" fill="white"/>
</svg>
